<svg xmlns="http://www.w3.org/2000/svg" width="24" height="24" viewBox="0 0 24 24">
    <g fill="none" fill-rule="evenodd" stroke="#FFF" stroke-linecap="round" stroke-linejoin="round" stroke-width="1.3" opacity=".9">
        <path d="M10.36 2.96c2.452 0 4.44 1.988 4.44 4.44h0-8.88c0-2.452 1.988-4.44 4.44-4.44zM7.4 2.96C7.4 1.325 8.725 0 10.36 0s2.96 1.325 2.96 2.96M0 7.4h20.72l-1.269 10.148c-.076.609-.16.823-.298 1.037-.137.214-.323.378-.552.488-.23.11-.453.167-1.066.167H3.185c-.613 0-.836-.057-1.066-.167-.229-.11-.415-.274-.552-.488-.138-.214-.222-.428-.298-1.037L0 7.4h0z" transform="translate(1.48 2.96)"/>
        <path d="M6.83 2.96H4.222c-.491 0-.668.03-.859.097-.19.066-.354.167-.498.308C2.77 3.459 1.814 4.804 0 7.4h20.72c-1.814-2.596-2.77-3.941-2.866-4.035-.144-.141-.308-.242-.498-.308s-.368-.097-.86-.097h-2.713" transform="translate(1.48 2.96)"/>
    </g>
</svg>
