<svg xmlns="http://www.w3.org/2000/svg" width="70" height="14" viewBox="0 0 70 14">
    <path fill="#F9F9F9" d="M3.331 1.45H1.42v6.207h1.912c1.302 0 2.3-.235 2.997-.705.696-.47 1.045-1.267 1.045-2.388 0-1.135-.349-1.937-1.045-2.408-.697-.47-1.695-.706-2.997-.706zm.02 7.426H1.42v4.892H0V.232h3.351c1.722 0 3.065.358 4.031 1.073.966.716 1.45 1.802 1.45 3.259 0 1.456-.48 2.54-1.44 3.248-.96.71-2.306 1.064-4.04 1.064zm18.077-6.923c.985 1.302 1.478 2.984 1.478 5.047 0 2.063-.496 3.745-1.488 5.047C20.426 13.349 18.983 14 17.09 14c-1.88 0-3.315-.651-4.307-1.953-.992-1.302-1.489-2.984-1.489-5.047 0-2.076.493-3.761 1.479-5.057C13.76.648 15.199 0 17.09 0c1.892 0 3.338.651 4.337 1.953zM12.774 7c0 1.702.358 3.084 1.074 4.148.716 1.063 1.797 1.595 3.243 1.595 1.459 0 2.546-.532 3.262-1.595.717-1.064 1.075-2.446 1.075-4.148 0-1.702-.358-3.084-1.075-4.148-.716-1.063-1.803-1.595-3.262-1.595s-2.543.528-3.253 1.586C13.128 3.9 12.774 5.285 12.774 7zM26 13.768V.232h1.42V12.55h6.544v1.218h-7.964zm9.797-.503l.276-1.237c1.38.49 2.629.734 3.746.734 1.038 0 1.843-.203 2.415-.609.571-.406.857-1.015.857-1.827 0-.825-.276-1.434-.828-1.827-.552-.394-1.445-.777-2.68-1.15-1.25-.4-2.176-.884-2.78-1.451-.605-.567-.907-1.367-.907-2.398 0-1.122.394-1.985 1.183-2.591C37.868.303 38.946 0 40.313 0c1.182 0 2.286.193 3.311.58l-.295 1.18c-1.117-.348-2.09-.522-2.918-.522-2.037 0-3.055.747-3.055 2.243 0 .722.226 1.266.68 1.634.423.343 1.1.666 2.033.97l.204.064c.565.18 1.019.339 1.36.474.342.135.723.319 1.144.551.42.232.742.48.966.745.223.264.414.602.571 1.015.158.412.237.876.237 1.392 0 1.25-.44 2.175-1.32 2.775-.881.6-2.005.899-3.372.899-1.524 0-2.878-.245-4.06-.735zm19.831.503l-4.415-6.285c-.75.49-1.564.954-2.445 1.393v4.892H47.35V.232h1.42v7.251c1.866-.992 3.295-2.056 4.287-3.19.992-1.135 1.646-2.488 1.961-4.061h1.42c-.526 2.565-1.906 4.725-4.14 6.478l5.027 7.058h-1.696zm8.516-12.105c-.828 1.818-1.728 4.119-2.7 6.903h5.401l-.305-.863c-.856-2.4-1.655-4.414-2.396-6.04zm4.396 12.105c-.368-1.25-.795-2.578-1.281-3.983h-6.23c-.486 1.405-.913 2.732-1.28 3.983h-1.46C60.026 8.263 61.728 3.751 63.397.232h1.479C66.7 4.087 68.41 8.599 70 13.768h-1.459z"/>
</svg>
