<svg xmlns="http://www.w3.org/2000/svg" width="25" height="25" viewBox="0 0 25 25">
    <path fill="#FFF" d="M23.437 5.192c-.233-.982-.792-1.954-1.573-2.736-.788-.787-1.728-1.33-2.717-1.568-.998-.241-1.97-.14-2.738.286-.203.113-.543.302-1.883 3.38-.541 1.242-1.031 2.467-1.164 2.801l-3.041 3.232c-.203-.19-.52-.187-.719.01-.201.202-.201.529 0 .73l.011.011-8.311 8.831c-.739.785-.72 2.044.043 2.807.389.389.907.584 1.425.584.498 0 .996-.18 1.38-.542l8.832-8.311.01.01c.202.202.529.202.73 0 .198-.197.202-.515.011-.718l3.269-3.076c.34-.133 1.545-.607 2.768-1.132 3.05-1.308 3.242-1.646 3.358-1.849.437-.767.547-1.744.309-2.75zM3.444 22.267c-.377.354-1.004.345-1.37-.021-.366-.366-.375-.993-.02-1.37l8.29-8.808 1.908 1.909-8.808 8.29zm9.56-8.998l-1.953-1.953 2.801-2.977.579.579.01.01.952.952.008.008.58.58-2.977 2.801zm9.241-5.862c-.366.368-3.009 1.533-5.397 2.469l-.302-.303 3.051-2.3c.228-.172.273-.495.102-.723-.172-.227-.495-.273-.723-.101L15.81 8.837l-.326-.326 2.388-3.167c.172-.228.126-.551-.101-.723-.228-.171-.551-.126-.723.102l-2.3 3.051-.316-.315c.956-2.397 2.135-5.03 2.505-5.397 1.16-.623 2.92-.153 4.198 1.124 1.29 1.29 1.754 3.06 1.111 4.221z"/>
</svg>
