<svg xmlns="http://www.w3.org/2000/svg" width="24" height="24" viewBox="0 0 24 24">
    <path fill="none" fill-rule="evenodd" stroke="#FFF" stroke-linecap="round" stroke-linejoin="round" stroke-width="1.3" d="M14.952 16.524c.454.309 1.073.193 1.384-.259.437-.638.636-.738.905-.726.861.101 4.253 2.578 4.593 3.353.085.228.082.452-.01.724-.356 1.053-.945 1.793-1.705 2.14-.721.33-1.606.3-2.557-.086-3.553-1.443-6.657-3.457-9.226-5.986-2.536-2.56-4.553-5.65-5.999-9.185-.387-.949-.417-1.83-.086-2.55.348-.756 1.09-1.344 2.147-1.698.274-.092.498-.095.724-.01.78.339 3.266 3.72 3.366 4.568.015.278-.087.476-.726.911-.454.31-.57.926-.26 1.378.31.453 6.997 7.116 7.45 7.426z"/>
</svg>
